<svg width="10" height="16" viewBox="0 0 10 16" fill="none" xmlns="http://www.w3.org/2000/svg">
<path id="Vector" d="M6.60229 7.49378L6.60226 7.49376L1.15211 2.3026C0.826749 1.99269 0.814123 1.47777 1.12406 1.15238C1.4336 0.827378 1.94849 0.814399 2.27423 1.12428L2.27428 1.12433L8.49854 7.05321L8.49856 7.05319L8.50032 7.05496C8.78832 7.34333 8.94766 7.72688 8.94766 8.13482C8.94766 8.54301 8.78788 8.92679 8.48775 9.22654L8.48777 9.22656L8.48605 9.22819L2.27396 15.1449C2.27394 15.1449 2.27393 15.1449 2.27392 15.145C2.11653 15.295 1.91459 15.3695 1.71302 15.3695C1.49847 15.3695 1.28357 15.2849 1.1237 15.1169C0.813766 14.7915 0.826394 14.2769 1.15175 13.967L1.15191 13.9669L6.62367 8.77691L6.62428 8.77631L6.98146 8.42578C7.14295 8.26731 7.14096 8.00656 6.97709 7.85057L6.60229 7.49378Z" fill="#2890CF" stroke="#2890CF" stroke-width="0.2"/>
</svg>
