<svg width="15" height="17" viewBox="0 0 15 17" fill="none" xmlns="http://www.w3.org/2000/svg">
<path id="Shape" fill-rule="evenodd" clip-rule="evenodd" d="M7.49996 0C6.98229 0 6.56264 0.422842 6.56264 0.944444V1.88889C6.56264 1.91509 6.5637 1.94105 6.56578 1.96672C3.9044 2.41506 1.87606 4.74664 1.87606 7.55556V9.40417C1.87606 9.81095 1.72992 10.204 1.46465 10.5106L0.860597 11.2089C-1.09543 13.4699 0.498334 17 3.47518 17H11.5248C14.5017 17 16.0954 13.4699 14.1394 11.2089L13.5354 10.5106C13.2701 10.204 13.1239 9.81095 13.1239 9.40417V7.55556C13.1239 4.74661 11.0956 2.41501 8.43415 1.9667C8.43623 1.94104 8.43729 1.91509 8.43729 1.88889V0.944444C8.43729 0.422842 8.01763 0 7.49996 0ZM3.75071 7.55556C3.75071 5.46915 5.42933 3.77778 7.5 3.77778C9.57068 3.77778 11.2493 5.46915 11.2493 7.55556V9.40417C11.2493 10.2673 11.5594 11.1012 12.1222 11.7518L12.7263 12.45C13.6251 13.489 12.8927 15.1111 11.5248 15.1111H3.47518C2.10728 15.1111 1.37493 13.489 2.27375 12.45L2.8778 11.7518C3.44063 11.1012 3.75071 10.2673 3.75071 9.40417V7.55556Z" fill="white"/>
</svg>
