<svg width="19" height="15" viewBox="0 0 19 15" fill="none" xmlns="http://www.w3.org/2000/svg">
<g id="Group 530128">
<path id="Vector" d="M17.7604 6.25H0.989583C0.443052 6.25 0 6.78166 0 7.4375V7.5625C0 8.21834 0.443052 8.75 0.989583 8.75H17.7604C18.3069 8.75 18.75 8.21834 18.75 7.5625V7.4375C18.75 6.78166 18.3069 6.25 17.7604 6.25Z" fill="white"/>
<path id="Vector_2" d="M17.7604 12.5H0.989583C0.443052 12.5 0 13.0317 0 13.6875V13.8125C0 14.4683 0.443052 15 0.989583 15H17.7604C18.3069 15 18.75 14.4683 18.75 13.8125V13.6875C18.75 13.0317 18.3069 12.5 17.7604 12.5Z" fill="white"/>
<path id="Vector_3" d="M17.7604 0H0.989583C0.443052 0 0 0.531662 0 1.1875V1.3125C0 1.96834 0.443052 2.5 0.989583 2.5H17.7604C18.3069 2.5 18.75 1.96834 18.75 1.3125V1.1875C18.75 0.531662 18.3069 0 17.7604 0Z" fill="white"/>
</g>
</svg>
