<svg viewBox="0 0 27 27" fill="none" xmlns="http://www.w3.org/2000/svg">
  <path fill-rule="evenodd" clip-rule="evenodd"
    d="M4.02918 12.8818C3.7267 10.2128 5.81455 7.875 8.50055 7.875H19.7523C22.4383 7.875 24.5262 10.2128 24.2237 12.8818L23.4587 19.6318C23.2009 21.9064 21.2765 23.625 18.9873 23.625H9.26555C6.97635 23.625 5.05197 21.9064 4.79418 19.6318L4.02918 12.8818ZM8.50055 10.125C7.15755 10.125 6.11363 11.2939 6.26487 12.6284L7.02986 19.3784C7.15876 20.5157 8.12095 21.375 9.26555 21.375H18.9873C20.1319 21.375 21.0941 20.5157 21.223 19.3784L21.988 12.6284C22.1393 11.2939 21.0953 10.125 19.7523 10.125H8.50055Z"
    fill="#B4B4B8" />
  <path fill-rule="evenodd" clip-rule="evenodd"
    d="M10 7.875C10 5.38972 12.0147 3.375 14.5 3.375C16.9853 3.375 19 5.38972 19 7.875V11.25C19 11.8713 18.4963 12.375 17.875 12.375C17.2537 12.375 16.75 11.8713 16.75 11.25V7.875C16.75 6.63236 15.7426 5.625 14.5 5.625C13.2574 5.625 12.25 6.63236 12.25 7.875V11.25C12.25 11.8713 11.7463 12.375 11.125 12.375C10.5037 12.375 10 11.8713 10 11.25V7.875Z"
    fill="#B4B4B8" />
</svg>
  