<svg width="20" height="20" viewBox="0 0 20 20" fill="none" xmlns="http://www.w3.org/2000/svg">
<g id="sr-cart-trolley-v2" clip-path="url(#clip0_0_177)">
<path id="line" fill-rule="evenodd" clip-rule="evenodd" d="M1.90347 0.869598C1.46565 0.869598 1.11073 1.22452 1.11073 1.66234C1.11073 2.10015 1.46565 2.45507 1.90347 2.45507H3.78117L4.65198 4.2836L5.71758 10.3871C4.47381 10.4643 3.48895 11.4975 3.48895 12.7607C3.48895 13.6028 3.92661 14.3426 4.58688 14.7652C4.39256 15.1098 4.28168 15.5078 4.28168 15.9316C4.28168 17.2451 5.34645 18.3098 6.6599 18.3098C7.97335 18.3098 9.03811 17.2451 9.03811 15.9316C9.03811 15.6537 8.99043 15.3868 8.90279 15.1389H13.1371C13.0495 15.3868 13.0018 15.6537 13.0018 15.9316C13.0018 17.2451 14.0666 18.3098 15.38 18.3098C16.6935 18.3098 17.7582 17.2451 17.7582 15.9316C17.7582 14.6182 16.6935 13.5534 15.38 13.5534H5.86716C5.42934 13.5534 5.07442 13.1985 5.07442 12.7607C5.07442 12.3228 5.42934 11.9679 5.86716 11.9679H6.64872C6.68357 11.9684 6.71884 11.9665 6.75435 11.9623L15.5231 10.91C16.5437 10.7876 17.3701 10.0232 17.5717 9.01517L18.5356 4.19602C18.5821 3.96313 18.5219 3.72163 18.3713 3.53796C18.2207 3.3543 17.9957 3.24781 17.7582 3.24781H5.91479L4.9974 1.32148C4.86594 1.04544 4.58744 0.869598 4.28168 0.869598H1.90347ZM15.38 15.1389C14.9422 15.1389 14.5873 15.4938 14.5873 15.9316C14.5873 16.3694 14.9422 16.7244 15.38 16.7244C15.8178 16.7244 16.1728 16.3694 16.1728 15.9316C16.1728 15.4938 15.8178 15.1389 15.38 15.1389ZM5.86716 15.9316C5.86716 15.4938 6.22208 15.1389 6.6599 15.1389C7.09772 15.1389 7.45264 15.4938 7.45264 15.9316C7.45264 16.3694 7.09772 16.7244 6.6599 16.7244C6.22208 16.7244 5.86716 16.3694 5.86716 15.9316ZM7.31158 10.2986L6.35741 4.83329H16.7912L16.0171 8.70423C15.9499 9.04023 15.6744 9.29503 15.3342 9.33585L7.31158 10.2986Z" fill="#3C6AB2"/>
</g>
<defs>
<clipPath id="clip0_0_177">
<rect width="19.0257" height="19.0257" fill="white" transform="translate(0.317993 0.0768738)"/>
</clipPath>
</defs>
</svg>
